<svg width="136.742188" height="45.000000" viewBox="0 0 136.742 45" fill="none" xmlns="http://www.w3.org/2000/svg" xmlns:xlink="http://www.w3.org/1999/xlink">
	<desc>
			Created with Pixso.
	</desc>
	<defs/>
	<rect width="136.742188" height="45.000000" fill="#FFFFFF"/>
	<path id="矢量 1" d="M37.0588 26.25C37.0588 36.6055 28.7631 45 18.5294 45C8.29572 45 0 36.6055 0 26.25C0 15.8946 8.29572 7.5 18.5294 7.5C28.7631 7.5 37.0588 15.8946 37.0588 26.25Z" fill-rule="evenodd" fill="#32A8FD"/>
	<path id="矢量 1" d="M42 13.75C42 21.344 35.9162 27.5 28.4118 27.5C20.9073 27.5 14.8235 21.344 14.8235 13.75C14.8235 6.15601 20.9073 0 28.4118 0C35.9162 0 42 6.15601 42 13.75Z" fill-rule="evenodd" fill="#32DCE5"/>
	<path id="矢量 1" d="M16.4868 7.61261C17.1576 7.53821 17.8391 7.5 18.5294 7.5C28.3005 7.5 36.3051 15.1531 37.0086 24.8588C34.6666 26.7971 31.6733 27.9599 28.4118 27.9599C20.9072 27.9599 14.8235 21.8038 14.8235 14.2099C14.8235 11.8192 15.4265 9.57108 16.4868 7.61261Z" fill-rule="evenodd" fill="#003ADA"/>
	<path id="SDKP" d="M67.125 5.44531Q66.0117 5.81641 65.4922 6.33594Q65.6406 6.33594 65.7891 6.48438Q64.8242 7.30078 63.8594 7.96875Q63.1172 9.00781 62.2266 10.1211Q62.375 10.1211 62.4492 10.3438Q62.0039 10.9375 61.707 11.3086Q61.9297 11.2344 62.1523 11.3086Q62.0781 11.6797 61.8555 11.9766Q62.0781 13.0898 62.5977 14.2031L63.6367 15.2422Q64.6758 15.7617 65.6406 16.4297Q68.6094 17.2461 71.4297 18.582Q72.1719 19.4727 72.9883 20.4375Q73.3594 21.4023 73.6562 22.5156Q73.6562 23.5547 73.4336 24.5195Q72.3945 25.1875 71.4297 25.8555Q70.4648 26.1523 69.5 26.5234Q69.5 26.7461 69.2773 26.9688Q68.6094 27.043 68.0898 27.3398Q67.4961 27.1914 66.9023 27.2656Q65.7148 26.7461 64.5273 26.5234Q64.082 26.0781 63.7109 25.9297Q63.4883 25.4102 63.1914 24.8906Q63.043 23.2578 63.1172 21.7734L62.6719 21.7734Q62.2266 21.1055 61.7812 20.5117Q61.2617 21.2539 60.8164 22.0703Q60.4453 23.1094 60.1484 24.3711Q60.0742 24.7422 60.2227 25.1133Q60 25.1875 60 25.3359Q60.668 26.3008 61.3359 27.4141L61.1875 27.5625Q62.0781 28.1562 62.9688 28.8984Q64.3047 29.3438 65.6406 29.9375Q67.3477 30.1602 69.2031 30.0859Q71.0586 29.4922 72.9141 28.8984Q74.0273 28.082 75.3633 27.5625Q75.7344 27.1172 76.1797 26.7461Q76.6992 25.9297 76.9961 24.9648Q77.0703 23.7031 76.9961 22.5156Q76.6992 21.6992 76.5508 20.8828Q75.957 19.6953 75.2891 18.582Q74.5469 17.7656 73.8789 17.1719Q72.8398 16.5781 71.9492 16.0586Q68.6836 14.8711 65.6406 13.6094Q65.0469 13.0156 64.6758 12.3477Q64.75 11.6055 65.0469 10.9375Q65.7891 9.89844 66.8281 9.00781Q67.6445 8.5625 68.5352 8.19141Q69.2031 8.11719 69.8711 8.22852Q70.5391 8.33984 71.207 8.63672Q71.3555 8.78516 71.5039 9.00781Q71.2812 10.5664 71.2812 12.125Q71.6523 12.1992 71.8008 12.7188Q72.0977 12.6445 72.3203 12.3477Q72.6172 12.4961 72.9141 12.4961Q73.2109 12.0508 73.6562 11.7539Q74.1016 10.5664 74.6953 9.45312Q74.6953 8.33984 74.6211 7.30078Q74.1016 6.70703 73.8047 6.11328Q73.0625 5.74219 72.4688 5.44531Q71.5781 5.22266 70.7617 5Q68.9062 5.14844 67.125 5.44531ZM83.8984 5.89062Q83.2305 6.92969 82.9336 8.11719Q82.9336 8.5625 83.0078 9.23047Q82.3398 10.6406 81.9688 12.1992Q81.7461 14.2031 81.5234 16.207Q81.1523 17.3203 80.9297 18.582Q80.5586 22.0703 80.1133 25.707Q79.8906 26.0039 79.668 26.3008Q79.7422 26.6719 79.9648 27.1172Q79.8164 27.4141 79.8164 27.8594Q80.0391 28.5273 80.3359 29.1953Q81.0039 29.4922 81.7461 29.7148Q82.1172 29.7148 82.4141 29.5664Q82.4883 29.0469 82.748 28.75Q83.0078 28.4531 83.2305 28.2305Q83.8242 28.2305 84.3438 28.5273Q86.4219 28.1562 88.5 27.6367Q89.5391 26.9688 90.875 26.5234Q92.2109 25.4102 93.6211 24.3711Q94.6602 23.0352 95.625 21.7734Q96.0703 19.918 96.4414 18.0625Q96.3672 16.5781 96.3672 15.168Q95.9961 13.4609 95.5508 11.8281Q94.3633 10.0469 93.1016 8.5625Q91.7656 7.52344 90.3555 6.85547Q89.168 6.41016 87.9805 6.11328Q87.832 5.89062 87.7578 5.81641Q86.5703 5.59375 85.3828 5.44531Q84.7148 5.81641 83.8984 5.89062ZM86.3477 9.08203Q88.0547 9.37891 89.7617 10.1953Q90.2812 10.5664 90.875 11.0117Q91.4688 12.0508 92.2109 13.1641Q92.582 15.5391 92.582 18.0625Q92.5078 18.5078 92.3594 18.9531Q92.1367 19.1016 91.9883 19.25Q91.6914 19.9922 91.6172 20.8086Q90.5781 22.1445 89.6133 23.4062Q87.3867 24.5938 85.2344 25.6328Q84.5664 25.7812 84.084 25.707Q83.6016 25.6328 83.5273 25.3359Q84.418 18.1367 85.3828 10.9375Q85.7539 10.2695 85.8281 9.45312Q86.125 9.23047 86.3477 9.08203ZM102.305 5.66797Q101.785 5.74219 101.34 5.74219Q100.672 6.33594 100.375 7.15234Q100.449 11.0859 100.449 15.0938Q100.301 15.4648 99.8184 15.9102Q99.3359 16.3555 99.4102 16.6523Q99.9297 17.8398 100.523 19.1758L100.523 23.7031Q100.746 26.0039 100.895 28.3789Q100.969 28.8242 101.34 29.3438Q101.859 29.2695 102.156 29.7891Q102.898 29.6406 103.641 29.2695Q103.938 28.6016 104.16 28.082Q103.789 25.2617 103.789 22.3672Q103.863 21.8477 104.383 21.5508Q105.273 21.6992 106.016 22.293Q107.203 23.4062 108.539 24.4453Q109.727 24.8906 110.84 25.8555Q112.621 26.5234 114.477 27.3398Q114.773 27.2656 115.59 27.2656Q116.035 27.1172 116.258 26.7461Q116.258 25.7812 116.035 25.1133Q114.18 23.7031 112.398 22.5898Q111.805 22.293 111.396 22.0332Q110.988 21.7734 110.766 21.625Q110.023 21.2539 109.43 20.8828Q108.836 20.5117 108.539 20.1406L108.539 19.6211Q109.355 18.582 110.172 17.6172Q111.359 15.6875 112.473 13.7578Q113.586 12.1992 114.773 10.7891Q115.07 9.67578 115.219 8.48828Q114.773 7.52344 114.328 6.70703Q113.586 6.70703 112.77 6.70703Q112.176 7.44922 111.434 7.96875Q111.137 8.63672 110.766 9.23047Q110.395 9.82422 110.32 10.5664Q108.613 13.0156 107.277 15.6875Q106.758 16.875 106.312 18.1367Q106.016 18.2109 105.941 18.5078Q105.348 18.2852 104.754 18.2852Q104.309 17.543 103.863 16.9492Q104.012 12.1992 104.012 7.44922Q103.641 6.41016 103.121 5.66797Q102.75 5.51953 102.602 5.37109Q102.453 5.44531 102.305 5.66797ZM122.27 5.66797Q121.824 5.81641 121.527 6.11328L120.785 6.11328Q119.969 6.55859 119.301 7.15234Q119.078 7.96875 119.152 9.00781Q119.375 9.67578 119.523 10.4922Q119.227 14.8711 119.004 19.3242Q118.93 22.8867 119.004 26.4492Q119.227 27.4883 119.301 28.6758Q119.672 29.3438 120.34 29.8633L121.082 29.8633Q121.453 29.5664 121.824 29.2695Q121.973 28.75 122.344 28.3789Q122.195 25.2617 122.195 22.2188Q122.27 21.9219 122.566 21.6992Q122.938 22.1445 123.457 22.4414Q124.496 22.5156 125.684 22.8125Q126.723 22.6641 127.836 22.5898Q129.023 22.2188 130.137 21.8477Q131.398 21.1055 132.586 20.2148Q133.402 19.3984 134.367 18.4336Q134.887 17.1719 135.555 16.0586Q135.629 14.7969 136 13.6094Q135.926 11.9766 135.555 10.5664Q134.961 9.89844 134.812 9.08203Q133.922 8.41406 133.477 7.67188Q132.438 6.92969 131.473 6.33594Q130.137 6.03906 129.023 5.51953Q127.91 5.44531 126.871 5.29688Q124.496 5.29688 122.27 5.66797ZM127.762 8.5625Q128.504 8.78516 129.246 9.00781Q129.988 9.23047 130.73 9.67578Q131.25 10.1211 131.918 10.6406Q132.289 11.457 132.586 12.4219L132.586 13.5352Q132.066 14.5 131.844 15.6133Q131.398 15.9844 131.176 16.5781Q130.137 17.3945 129.172 18.3594Q127.91 18.8789 126.871 19.5469Q124.719 19.9922 122.566 20.2148Q122.418 19.9922 122.195 19.918Q122.121 17.8398 122.195 15.6875Q122.344 14.6484 122.492 13.6094Q122.492 11.457 122.492 9.45312Q122.641 8.78516 123.234 8.63672Q125.461 8.48828 127.762 8.5625Z" fill-rule="evenodd" fill="#000000"/>
</svg>
